/* XPM */
static char *dummy[]={
"32 32 80 2",
"Qt c #000000",
"#j c #000010",
".T c #00007f",
".a c #000080",
".O c #00008f",
".Y c #00009f",
".# c #0000ff",
"#l c #000f00",
".7 c #002f9f",
".4 c #100000",
".k c #100f10",
".c c #201f20",
"#k c #20202f",
"#m c #2f2020",
".r c #2f202f",
".G c #30006f",
".P c #3000cf",
"#d c #302f30",
".0 c #302f9f",
".I c #302fcf",
".9 c #302fd0",
".x c #3f009f",
".H c #3f00d0",
".1 c #3f2f30",
".Z c #3f2f9f",
".8 c #3f2fcf",
".w c #3f2fd0",
".X c #3f309f",
".j c #403f40",
"#n c #403f4f",
"## c #40404f",
".3 c #4f4040",
".s c #504f50",
"#c c #5f4f5f",
".i c #5f505f",
".2 c #605f60",
".Q c #60609f",
".v c #6f2f9f",
".U c #6f30cf",
"#b c #6f606f",
".S c #6f609f",
".n c #7f707f",
".o c #8f8f8f",
".J c #9f60d0",
".l c #9f9f9f",
".W c #9f9fcf",
".L c #a09f9f",
".u c #a0a0a0",
".h c #afafaf",
".A c #afafb0",
"#h c #afb0af",
".V c #afb0b0",
".M c #b0afaf",
"#i c #b0afb0",
"#a c #b0b0af",
".d c #b0b0b0",
".e c #bfbfbf",
".R c #bfbfc0",
"#. c #bfc0bf",
".C c #bfc0c0",
".F c #c0bfbf",
".N c #c0bfc0",
".5 c #c0c0bf",
".y c #c0c0c0",
".t c #cfcfcf",
"#f c #cfcfd0",
".E c #cfd0d0",
".z c #d09fcf",
".B c #d0cfcf",
".K c #d0cfd0",
"#e c #d0d09f",
"#g c #d0d0cf",
".p c #d0d0d0",
".q c #dfdfdf",
".D c #dfe0df",
".6 c #dfe0e0",
".m c #e0e0e0",
".g c #efefef",
".f c #f0f0f0",
".b c #ffffff",
"QtQtQtQtQtQtQtQtQtQtQtQtQtQtQtQtQtQtQtQtQtQtQtQtQtQtQtQtQtQtQtQt",
"QtQtQtQtQtQtQtQtQt.#QtQtQtQtQtQtQtQtQtQtQtQtQtQtQtQtQtQtQtQtQtQt",
"QtQtQtQtQtQtQtQtQtQtQtQtQtQtQtQtQtQtQtQt.aQtQtQtQt.bQtQtQtQtQtQt",
"QtQtQtQtQtQtQtQtQtQtQtQtQtQtQtQtQtQtQtQtQtQtQtQtQtQtQt.#QtQtQtQt",
"QtQtQtQtQtQtQtQtQtQtQtQtQtQtQtQtQt.#QtQtQtQtQtQtQtQtQtQtQtQtQtQt",
"QtQtQt.aQtQtQtQtQtQtQtQt.aQtQtQtQtQtQtQtQtQtQtQtQtQtQtQtQtQtQtQt",
"QtQtQtQtQtQtQtQtQtQtQtQtQtQtQtQtQtQtQtQtQtQtQtQtQtQtQtQtQtQtQtQt",
"QtQtQtQt.bQtQt.aQtQtQtQtQtQtQtQtQtQt.c.d.e.f.g.hQtQtQtQtQtQtQtQt",
"QtQt.#QtQtQtQtQtQtQtQtQtQtQtQtQtQt.i.jQtQt.k.l.b.mQtQtQtQtQtQtQt",
"QtQtQtQtQtQtQtQtQtQtQtQtQtQtQtQt.c.cQtQtQtQtQt.n.b.mQtQtQtQtQtQt",
"QtQtQtQtQtQtQtQtQtQtQtQtQtQtQt.c.n.lQtQtQtQtQtQt.o.f.kQtQtQtQtQt",
"QtQtQtQtQtQtQtQtQtQtQtQtQt.n.l.p.q.h.kQt.aQtQtQt.r.q.nQtQtQtQtQt",
"QtQtQtQtQt.k.s.o.l.l.t.t.e.h.t.p.u.o.e.h.cQt.c.e.p.t.lQtQtQtQtQt",
"QtQtQt.s.l.v.w.x.e.p.t.e.e.y.d.o.h.e.d.y.l.t.y.e.t.m.oQtQtQtQtQt",
"Qt.l.l.h.z.v.A.B.C.e.h.m.h.n.l.p.t.p.h.d.p.t.e.h.m.h.l.kQtQt.aQt",
"Qt.n.n.o.h.p.h.l.l.D.E.F.o.G.H.I.e.y.y.t.t.e.l.C.J.e.e.eQtQtQtQt",
"QtQtQt.K.y.L.u.M.M.A.N.l.l.O.P.w.Q.R.t.p.h.h.m.S.T.U.h.e.nQtQtQt",
"QtQt.E.B.F.F.M.l.o.o.l.h.V.h.l.o.h.e.t.h.l.t.W.X.Y.Z.0.e.t.cQtQt",
"Qt.1.b.f.V.l.o.n.2.3.4QtQtQt.o.R.5.l.l.l.6.V.7.0.8.x.9.h.l#.QtQt",
"Qt###a.A.l.l#b#c.kQtQtQtQt#d.t.5.l.l.V.M.V.l.l.h#e.l.l.o.R.nQtQt",
"QtQt#b#b.i.cQtQtQtQtQtQtQt.h#f#g.K#h#h.o.l.h.l#a.l.l#i.N.nQtQtQt",
"QtQtQtQtQtQtQtQtQtQtQtQt.c.m.b.f.A.l.o#b#jQtQtQt.k#k#c#b#lQtQtQt",
"QtQtQtQtQtQtQtQtQtQtQtQt.c.l.e.l.l.l#b.cQtQtQtQtQtQtQtQtQtQtQtQt",
"QtQtQtQtQtQtQtQtQtQtQtQt.4.o.l.o.n.jQtQtQtQtQtQtQtQtQtQtQtQt.aQt",
"QtQtQtQtQtQtQtQtQtQtQtQtQt#m#n.j.kQtQtQtQtQtQtQtQtQt.a.aQtQtQtQt",
"QtQtQtQtQtQtQtQt.#QtQtQtQtQtQtQtQtQtQtQtQtQtQtQtQtQtQtQtQtQtQtQt",
"QtQtQtQtQtQtQtQtQtQtQtQtQtQtQtQtQtQtQtQt.#QtQtQtQtQtQtQtQtQtQtQt",
"QtQtQtQt.bQtQtQtQtQtQtQtQtQt.aQtQtQtQtQtQtQtQtQtQt.#QtQtQtQtQtQt",
"QtQtQtQtQtQt.aQtQtQtQtQtQtQtQtQtQtQtQtQtQtQtQtQtQtQtQtQtQtQtQtQt",
"QtQtQtQtQtQtQtQtQtQtQtQtQtQtQtQtQtQtQtQtQt.bQtQtQtQtQtQtQtQtQtQt",
"QtQtQtQtQtQtQtQtQtQtQtQtQtQtQtQtQtQtQtQt.aQtQtQtQtQtQtQtQtQtQtQt",
"QtQtQtQtQtQtQtQtQtQtQtQtQtQtQt.#QtQtQtQtQtQtQtQtQtQtQtQtQtQtQtQt"};
